# Blender v2.79 (sub 0) OBJ File: ''
# www.blender.org
o Mill
v -0.069634 0.168371 -0.084423
v -0.069468 0.168410 -0.077872
v -0.070875 -0.014407 -0.076742
v -0.071041 -0.014446 -0.083293
v 0.004752 0.167787 -0.086304
v 0.004918 0.167826 -0.079753
v 0.075821 0.167229 -0.088101
v 0.075987 0.167268 -0.081550
v -0.066995 -0.173653 -0.098539
v -0.062322 -0.082739 -0.089388
v -0.011533 -0.083138 -0.090672
v -0.008757 -0.174110 -0.100012
v -0.086067 0.183952 0.091344
v 0.009997 0.273232 0.088376
v 0.005249 0.272110 -0.099052
v -0.090816 0.182830 -0.096084
v 0.116317 -0.181494 0.105738
v -0.105751 -0.179750 0.111353
v -0.111377 -0.181080 -0.110718
v 0.110691 -0.182824 -0.116333
v -0.088562 -0.027696 0.093563
v -0.075857 -0.022285 0.080209
v -0.079992 -0.023262 -0.083013
v -0.093356 -0.028829 -0.095641
v 0.100640 -0.029182 0.088779
v 0.087363 -0.023567 0.076082
v 0.095847 -0.030315 -0.100426
v 0.083228 -0.024544 -0.087141
v 0.074413 -0.015589 -0.086971
v 0.074579 -0.015550 -0.080420
v -0.076014 -0.013453 0.071271
v -0.069463 -0.013504 0.071105
v -0.073148 -0.014375 -0.074351
v -0.079699 -0.014323 -0.074185
v -0.074607 0.169365 0.070141
v -0.068056 0.169313 0.069975
v -0.078292 0.168494 -0.075315
v -0.071741 0.168443 -0.075481
v 0.083521 -0.015605 -0.078313
v 0.076970 -0.015554 -0.078147
v 0.080655 -0.014683 0.067309
v 0.087206 -0.014735 0.067144
v 0.101358 0.182480 0.086605
v 0.096610 0.181358 -0.100823
v -0.074313 0.178303 0.078969
v -0.078449 0.177326 -0.084253
v 0.008955 0.177649 0.076863
v 0.004820 0.176672 -0.086359
v 0.088907 0.177022 0.074842
v 0.084772 0.176044 -0.088381
v -0.067298 -0.172392 -0.110912
v -0.009060 -0.172849 -0.112384
v 0.084928 0.167212 -0.079443
v 0.078377 0.167264 -0.079277
v 0.088613 0.168083 0.066014
v 0.082062 0.168134 0.066179
v -0.062625 -0.081478 -0.101760
v -0.011836 -0.081877 -0.103044
v 0.078548 -0.014612 0.076251
v -0.066906 -0.013469 0.079929
v 0.079956 0.168206 0.075121
v 0.008887 0.168764 0.076918
v -0.065499 0.169348 0.078799
v 0.078382 -0.014651 0.069700
v -0.067072 -0.013508 0.073378
v 0.079790 0.168167 0.068570
v 0.008721 0.168725 0.070367
v -0.065665 0.169309 0.072248
vn 0.9996 -0.0079 -0.0253
vn -0.0077 -1.0000 0.0062
vn -0.0244 0.1014 -0.9946
vn -0.6805 0.7326 0.0129
vn -0.3880 0.9216 0.0043
vn 0.0171 0.9209 0.3894
vn 0.4022 0.9154 -0.0157
vn -0.0029 0.9162 -0.4008
vn -0.9996 0.0079 0.0253
vn -0.9997 0.0079 0.0253
vn 0.0077 1.0000 -0.0062
vn -0.0253 -0.0060 -0.9997
vn 0.0253 0.0060 0.9997
vn 0.7044 0.7095 -0.0221
vn -0.4193 -0.9077 0.0161
vn 0.1418 -0.1199 0.9826
vn 0.0034 -0.9085 0.4179
vn 0.4594 -0.5183 -0.7213
vn -0.0261 -0.1317 -0.9909
vn -0.4743 -0.4917 0.7302
vn 0.0242 -0.1198 0.9925
vn 0.4053 -0.9142 -0.0048
vn -0.1479 -0.1297 -0.9805
vn -0.0175 -0.9134 -0.4067
vn 0.0104 0.9948 0.1011
vn 0.9984 -0.0484 -0.0294
vn -0.0104 -0.9948 -0.1011
vn -0.9992 -0.0327 0.0211
vn -0.9996 0.0078 0.0253
vn 0.9996 -0.0078 -0.0253
vn -0.9930 0.1151 0.0245
vn -0.9931 0.1151 0.0245
vn 0.0260 0.1133 0.9932
vn 0.9947 0.0995 -0.0258
s 1
f 1//1 2//1 3//1
f 3//1 4//1 1//1
f 5//2 6//2 2//2
f 2//2 1//2 5//2
f 7//2 8//2 6//2
f 6//2 5//2 7//2
f 9//3 10//3 11//3
f 11//3 12//3 9//3
f 13//4 14//4 15//4
f 15//4 16//4 13//4
f 17//2 18//2 19//2
f 19//2 20//2 17//2
f 21//5 22//5 23//5
f 23//5 24//5 21//5
f 25//6 26//6 22//6
f 22//6 21//6 25//6
f 27//7 28//7 26//7
f 26//7 25//7 27//7
f 24//8 23//8 28//8
f 28//8 27//8 24//8
f 29//9 30//9 8//9
f 8//9 7//10 29//9
f 31//11 32//11 33//11
f 33//11 34//11 31//11
f 35//12 36//12 32//12
f 32//12 31//12 35//12
f 37//2 38//2 36//2
f 36//2 35//2 37//2
f 34//13 33//13 38//13
f 38//13 37//13 34//13
f 39//11 40//11 41//11
f 41//11 42//11 39//11
f 14//14 43//14 44//14
f 44//14 15//14 14//14
f 45//15 13//15 16//15
f 16//15 46//15 45//15
f 47//16 14//16 13//16
f 13//17 45//17 47//17
f 46//18 16//18 15//18
f 15//19 48//19 46//19
f 49//20 43//20 14//20
f 14//21 47//21 49//21
f 50//22 44//22 43//22
f 43//22 49//22 50//22
f 48//23 15//23 44//23
f 44//24 50//24 48//24
f 19//3 51//3 52//3
f 52//3 20//3 19//3
f 53//13 54//13 40//13
f 40//13 39//13 53//13
f 55//2 56//2 54//2
f 54//2 53//2 55//2
f 42//12 41//12 56//12
f 56//12 55//12 42//12
f 51//25 9//25 12//25
f 12//25 52//25 51//25
f 57//26 10//26 9//26
f 9//26 51//26 57//26
f 58//27 11//27 10//27
f 10//27 57//27 58//27
f 52//28 12//28 11//28
f 11//28 58//28 52//28
f 26//13 59//13 60//13
f 60//13 22//13 26//13
f 49//13 61//13 59//13
f 59//13 26//13 49//13
f 47//13 62//13 61//13
f 61//13 49//13 47//13
f 45//13 63//13 62//13
f 62//13 47//13 45//13
f 22//13 60//13 63//13
f 63//13 45//13 22//13
f 23//12 4//12 29//12
f 29//12 28//12 23//12
f 46//12 1//12 4//12
f 4//12 23//12 46//12
f 48//12 5//12 1//12
f 1//12 46//12 48//12
f 50//12 7//12 5//12
f 5//12 48//12 50//12
f 28//12 29//12 7//12
f 7//12 50//12 28//12
f 22//29 31//29 34//9
f 34//9 23//9 22//29
f 45//9 35//9 31//29
f 31//29 22//29 45//9
f 46//29 37//29 35//9
f 35//9 45//9 46//29
f 23//9 34//9 37//29
f 37//29 46//29 23//9
f 28//30 39//30 42//1
f 42//1 26//1 28//30
f 50//1 53//1 39//30
f 39//30 28//30 50//1
f 49//1 55//1 53//1
f 53//1 50//1 49//1
f 26//1 42//1 55//1
f 55//1 49//1 26//1
f 59//11 64//11 65//11
f 65//11 60//11 59//11
f 61//9 66//9 64//9
f 64//9 59//9 61//9
f 62//2 67//2 66//2
f 66//2 61//2 62//2
f 63//2 68//2 67//2
f 67//2 62//2 63//2
f 60//1 65//1 68//1
f 68//1 63//1 60//1
f 4//11 3//11 30//11
f 30//11 29//11 4//11
f 18//31 21//31 24//32
f 24//32 19//31 18//31
f 17//33 25//33 21//33
f 21//33 18//33 17//33
f 20//34 27//34 25//34
f 25//34 17//34 20//34
f 40//1 54//1 56//1
f 56//1 41//1 40//1
f 6//12 8//12 30//12
f 64//13 66//13 67//13
f 2//12 6//12 30//12
f 30//12 3//12 2//12
f 24//3 57//3 51//3
f 51//3 19//3 24//3
f 27//3 58//3 57//3
f 57//3 24//3 27//3
f 20//3 52//3 58//3
f 58//3 27//3 20//3
f 32//9 36//9 38//9
f 38//9 33//9 32//9
f 64//13 67//13 68//13
f 68//13 65//13 64//13
