# Blender v2.79 (sub 0) OBJ File: ''
# www.blender.org
o propeller.002
v 0.029006 -0.011841 -0.009283
v 0.137395 -0.013221 -0.008285
v 0.137229 -0.013221 0.009743
v 0.028839 -0.011841 0.008745
v 0.206459 0.022425 -0.007648
v 0.206293 0.022425 0.010380
v 0.189387 0.077338 -0.007806
v 0.189221 0.077338 0.010222
v 0.112287 0.067539 -0.008516
v 0.112121 0.067539 0.009512
v 0.023787 0.004943 -0.009332
v 0.023621 0.004943 0.008697
v 0.009700 0.015455 -0.009461
v 0.009534 0.015455 0.008567
v 0.044507 0.118117 -0.009141
v 0.044341 0.118117 0.008887
v 0.031949 0.194820 -0.009256
v 0.031783 0.194820 0.008772
v -0.025550 0.195552 -0.009786
v -0.025716 0.195552 0.008242
v -0.040057 0.119194 -0.009920
v -0.040223 0.119194 0.008108
v -0.007875 0.015679 -0.009623
v -0.008041 0.015679 0.008405
v -0.022225 0.005529 -0.009756
v -0.022391 0.005529 0.008273
v -0.109102 0.070358 -0.010556
v -0.109269 0.070358 0.007472
v -0.185928 0.082116 -0.011264
v -0.186094 0.082116 0.006764
v -0.204392 0.027656 -0.011434
v -0.204559 0.027656 0.006594
v -0.136258 -0.009737 -0.010806
v -0.136424 -0.009737 0.007222
v -0.027869 -0.011117 -0.009808
v -0.028035 -0.011117 0.008221
v -0.022650 -0.027902 -0.009759
v -0.022817 -0.027902 0.008269
v -0.111150 -0.090498 -0.010575
v -0.111316 -0.090498 0.007453
v -0.146073 -0.159933 -0.010897
v -0.146239 -0.159933 0.007131
v -0.099986 -0.194324 -0.010472
v -0.100152 -0.194324 0.007556
v -0.043370 -0.141076 -0.009950
v -0.043536 -0.141076 0.008078
v -0.008563 -0.038414 -0.009630
v -0.008729 -0.038414 0.008398
v 0.009012 -0.038638 -0.009468
v 0.008846 -0.038638 0.008560
v 0.041193 -0.142153 -0.009171
v 0.041027 -0.142153 0.008857
v 0.096436 -0.196824 -0.008662
v 0.096270 -0.196824 0.009366
v 0.143383 -0.163618 -0.008230
v 0.143217 -0.163618 0.009799
v 0.110239 -0.093316 -0.008535
v 0.110073 -0.093316 0.009493
v 0.023362 -0.028488 -0.009335
v 0.023196 -0.028488 0.008693
v 0.023716 -0.000626 -0.009332
v 0.004382 0.013802 -0.009510
v 0.113971 0.063211 -0.008501
v 0.186207 0.072392 -0.007835
v 0.201035 0.024696 -0.007698
v 0.136328 -0.008701 -0.008295
v 0.025790 -0.007294 -0.009313
v -0.017376 -0.029690 -0.009711
v -0.107630 -0.093527 -0.010542
v -0.011779 -0.033867 -0.009659
v -0.047276 -0.138564 -0.009986
v -0.024538 -0.006653 -0.009777
v -0.135076 -0.005246 -0.010795
v -0.110896 0.066074 -0.010573
v -0.022296 -0.000040 -0.009756
v -0.011825 -0.016140 -0.009660
v 0.018043 -0.030141 -0.009384
v 0.012342 -0.034174 -0.009437
v 0.000393 -0.025257 -0.009547
v 0.013617 -0.015904 -0.009425
v 0.106643 -0.096255 -0.008568
v 0.045162 -0.139741 -0.009135
v 0.137696 -0.162122 -0.008282
v 0.096919 -0.190963 -0.008658
v -0.002600 0.013891 -0.009575
v -0.035420 0.119458 -0.009877
v 0.039879 0.118499 -0.009183
v -0.005319 -0.000256 -0.009600
v 0.008808 -0.000436 -0.009470
v -0.021829 0.190998 -0.009752
v 0.028113 0.190362 -0.009292
v -0.140350 -0.158582 -0.010844
v -0.100320 -0.188452 -0.010475
v -0.198912 0.029788 -0.011384
v -0.182874 0.077091 -0.011236
vn -0.0127 -0.9999 -0.0001
vn 0.4586 -0.8886 0.0042
vn 0.9549 0.2969 0.0088
vn -0.1261 0.9920 -0.0012
vn -0.5774 0.8164 -0.0053
vn 0.5980 0.8015 0.0055
vn 0.9470 -0.3211 0.0087
vn 0.9868 0.1616 0.0091
vn 0.0127 0.9999 0.0001
vn -0.9824 0.1866 -0.0091
vn -0.9549 -0.2969 -0.0088
vn 0.1513 0.9885 0.0014
vn -0.9470 0.3211 -0.0087
vn -0.4811 -0.8767 -0.0044
vn -0.8933 0.4493 -0.0082
vn -0.5980 -0.8015 -0.0055
vn 0.6851 -0.7285 0.0063
vn -0.7034 -0.7108 -0.0065
vn 0.5774 -0.8164 0.0053
vn 0.9045 0.4265 0.0083
vn -0.0092 0.0000 1.0000
vn 0.0092 0.0000 -1.0000
s off
f 1//1 2//1 3//1
f 3//1 4//1 1//1
f 2//2 5//2 6//2
f 6//2 3//2 2//2
f 5//3 7//3 8//3
f 8//3 6//3 5//3
f 7//4 9//4 10//4
f 10//4 8//4 7//4
f 9//5 11//5 12//5
f 12//5 10//5 9//5
f 11//6 13//6 14//6
f 14//6 12//6 11//6
f 13//7 15//7 16//7
f 16//7 14//7 13//7
f 15//8 17//8 18//8
f 18//8 16//8 15//8
f 17//9 19//9 20//9
f 20//9 18//9 17//9
f 19//10 21//10 22//10
f 22//10 20//10 19//10
f 21//11 23//11 24//11
f 24//11 22//11 21//11
f 23//5 25//5 26//5
f 26//5 24//5 23//5
f 25//6 27//6 28//6
f 28//6 26//6 25//6
f 27//12 29//12 30//12
f 30//12 28//12 27//12
f 29//13 31//13 32//13
f 32//13 30//13 29//13
f 31//14 33//14 34//14
f 34//14 32//14 31//14
f 33//1 35//1 36//1
f 36//1 34//1 33//1
f 35//11 37//11 38//11
f 38//11 36//11 35//11
f 37//5 39//5 40//5
f 40//5 38//5 37//5
f 39//15 41//15 42//15
f 42//15 40//15 39//15
f 41//16 43//16 44//16
f 44//16 42//16 41//16
f 43//17 45//17 46//17
f 46//17 44//17 43//17
f 45//7 47//7 48//7
f 48//7 46//7 45//7
f 47//1 49//1 50//1
f 50//1 48//1 47//1
f 49//11 51//11 52//11
f 52//11 50//11 49//11
f 51//18 53//18 54//18
f 54//18 52//18 51//18
f 53//19 55//19 56//19
f 56//19 54//19 53//19
f 55//20 57//20 58//20
f 58//20 56//20 55//20
f 57//6 59//6 60//6
f 60//6 58//6 57//6
f 59//7 1//7 4//7
f 4//7 60//7 59//7
f 14//21 26//21 38//21
f 38//21 60//21 14//21
f 3//21 6//21 8//21
f 8//21 10//21 3//21
f 12//21 4//21 3//21
f 3//21 10//21 12//21
f 14//21 60//21 4//21
f 4//21 12//21 14//21
f 50//21 52//21 58//21
f 58//21 60//21 50//21
f 38//21 48//21 50//21
f 50//21 60//21 38//21
f 54//21 56//21 58//21
f 58//21 52//21 54//21
f 26//21 28//21 34//21
f 34//21 36//21 26//21
f 11//22 61//22 62//22
f 62//22 13//22 11//22
f 40//21 46//21 48//21
f 48//21 38//21 40//21
f 40//21 42//21 44//21
f 44//21 46//21 40//21
f 26//21 36//21 38//21
f 9//22 63//22 61//22
f 61//22 11//22 9//22
f 30//21 32//21 34//21
f 34//21 28//21 30//21
f 18//21 20//21 22//21
f 22//21 16//21 18//21
f 14//21 24//21 26//21
f 22//21 24//21 14//21
f 14//21 16//21 22//21
f 7//22 64//22 63//22
f 63//22 9//22 7//22
f 5//22 65//22 64//22
f 64//22 7//22 5//22
f 2//22 66//22 65//22
f 65//22 5//22 2//22
f 1//22 67//22 66//22
f 66//22 2//22 1//22
f 37//22 68//22 69//22
f 69//22 39//22 37//22
f 70//22 71//22 69//22
f 69//22 68//22 70//22
f 72//22 73//22 74//22
f 74//22 75//22 72//22
f 76//22 68//22 72//22
f 77//22 78//22 79//22
f 79//22 80//22 77//22
f 81//22 82//22 78//22
f 78//22 77//22 81//22
f 81//22 83//22 84//22
f 84//22 82//22 81//22
f 61//22 63//22 66//22
f 66//22 67//22 61//22
f 85//22 86//22 87//22
f 87//22 62//22 85//22
f 59//22 77//22 67//22
f 67//22 1//22 59//22
f 63//22 64//22 65//22
f 65//22 66//22 63//22
f 57//22 81//22 77//22
f 77//22 59//22 57//22
f 55//22 83//22 81//22
f 81//22 57//22 55//22
f 53//22 84//22 83//22
f 83//22 55//22 53//22
f 72//22 75//22 88//22
f 88//22 76//22 72//22
f 79//22 78//22 70//22
f 89//22 62//22 61//22
f 89//22 80//22 79//22
f 90//22 91//22 87//22
f 87//22 86//22 90//22
f 89//22 61//22 67//22
f 67//22 80//22 89//22
f 77//22 80//22 67//22
f 76//22 79//22 70//22
f 70//22 68//22 76//22
f 88//22 75//22 85//22
f 85//22 62//22 89//22
f 89//22 88//22 85//22
f 92//22 69//22 71//22
f 71//22 93//22 92//22
f 94//22 95//22 74//22
f 74//22 73//22 94//22
f 51//22 82//22 84//22
f 84//22 53//22 51//22
f 49//22 78//22 82//22
f 82//22 51//22 49//22
f 47//22 70//22 78//22
f 78//22 49//22 47//22
f 45//22 71//22 70//22
f 70//22 47//22 45//22
f 43//22 93//22 71//22
f 71//22 45//22 43//22
f 41//22 92//22 93//22
f 93//22 43//22 41//22
f 39//22 69//22 92//22
f 92//22 41//22 39//22
f 79//22 76//22 88//22
f 88//22 89//22 79//22
f 35//22 72//22 68//22
f 68//22 37//22 35//22
f 33//22 73//22 72//22
f 72//22 35//22 33//22
f 31//22 94//22 73//22
f 73//22 33//22 31//22
f 29//22 95//22 94//22
f 94//22 31//22 29//22
f 27//22 74//22 95//22
f 95//22 29//22 27//22
f 25//22 75//22 74//22
f 74//22 27//22 25//22
f 23//22 85//22 75//22
f 75//22 25//22 23//22
f 21//22 86//22 85//22
f 85//22 23//22 21//22
f 19//22 90//22 86//22
f 86//22 21//22 19//22
f 17//22 91//22 90//22
f 90//22 19//22 17//22
f 15//22 87//22 91//22
f 91//22 17//22 15//22
f 13//22 62//22 87//22
f 87//22 15//22 13//22
