# Blender v2.79 (sub 0) OBJ File: ''
# www.blender.org
o r3_Icosphere
v 0.008457 -0.081203 0.011743
v 0.049475 -0.064924 0.032524
v -0.010286 -0.079305 0.059382
v 0.086449 -0.023040 0.029627
v 0.092048 -0.030668 -0.018870
v -0.046704 -0.072792 0.002638
v -0.007255 -0.048906 -0.062712
v 0.049919 -0.054044 -0.048272
v 0.105519 0.017003 0.016966
v -0.021024 -0.045666 0.089374
v 0.033500 -0.046198 0.108887
v 0.028651 0.053286 0.098853
v -0.090926 -0.038089 -0.000423
v -0.072716 -0.042024 0.061582
v -0.105979 -0.002138 0.035541
v -0.017267 -0.015452 -0.115119
v -0.058376 -0.034902 -0.069867
v -0.044486 0.018404 -0.112174
v 0.072589 -0.018556 -0.081899
v 0.028615 -0.023408 -0.108620
v 0.055162 0.023992 -0.091724
v 0.085099 0.047617 0.073334
v -0.063063 -0.002532 0.079044
v -0.091209 0.001590 -0.041998
v 0.005093 0.035640 -0.135619
v 0.089597 0.003418 -0.042750
v 0.049705 0.067348 0.062980
v 0.081797 0.059860 0.039397
v 0.010270 0.060361 0.022271
v -0.073796 0.044125 0.053450
v -0.003018 0.075992 0.062457
v -0.046437 0.076357 0.024646
v -0.061404 0.044606 -0.074742
v -0.082941 0.050661 -0.003116
v -0.043658 0.073578 -0.052386
v 0.022402 0.046474 -0.104780
v -0.016920 0.054468 -0.100024
v 0.003250 0.057570 -0.079146
v 0.085520 0.023417 -0.016651
v 0.049042 0.028391 -0.065209
v 0.034237 0.049468 -0.026299
v -0.023978 0.074144 -0.018308
vn 0.2961 -0.9427 0.1540
vn 0.7429 -0.6428 0.1869
vn -0.1477 -0.9889 -0.0187
vn -0.0771 -0.9205 -0.3830
vn 0.0190 -0.9158 -0.4013
vn 0.9097 -0.3811 0.1650
vn -0.3352 0.0784 0.9389
vn -0.8133 -0.5449 0.2043
vn -0.5823 -0.4069 -0.7038
vn 0.5181 0.0147 -0.8552
vn 0.8525 -0.2631 0.4517
vn -0.2214 0.0177 0.9750
vn -0.9588 -0.2087 -0.1927
vn -0.3579 -0.2086 -0.9102
vn 0.8389 0.2297 -0.4934
vn 0.0609 0.9723 -0.2259
vn -0.4104 0.7761 0.4787
vn -0.7146 0.6456 -0.2694
vn 0.1566 0.9437 -0.2915
vn 0.1563 0.9438 -0.2912
vn 0.1563 0.9438 -0.2913
vn 0.4760 0.8363 -0.2719
vn 0.3795 0.9216 -0.0812
vn 0.5703 0.7934 -0.2128
vn 0.5307 0.8471 0.0298
vn 0.2393 0.9587 -0.1541
vn 0.1561 0.9439 -0.2910
vn -0.4633 0.7016 -0.5415
vn 0.0317 0.9989 -0.0349
vn -0.5492 0.8342 -0.0499
vn -0.6578 0.7287 0.1905
vn 0.2739 0.9572 0.0939
vn 0.2500 0.9275 -0.2781
vn 0.1567 0.9369 -0.3126
vn 0.3885 0.9213 -0.0149
vn 0.0532 0.9797 -0.1935
vn 0.4695 0.7542 -0.4592
vn 0.6317 0.6598 -0.4069
vn 0.5314 0.8469 -0.0179
vn 0.5674 0.8235 -0.0057
vn 0.1367 0.9081 -0.3958
vn -0.5032 0.5956 -0.6262
vn -0.4934 0.5919 -0.6373
vn -0.8757 0.3818 -0.2956
vn -0.9426 0.2900 -0.1656
vn -0.8389 0.5084 0.1944
vn -0.2933 0.4070 0.8650
vn -0.4662 0.5093 0.7234
vn 0.1417 0.8905 0.4323
vn 0.4055 0.8717 0.2750
vn 0.8888 0.4519 0.0765
vn 0.7422 0.5830 -0.3303
vn 0.7421 0.5833 -0.3302
vn 0.7420 0.5835 -0.3301
vn 0.6112 0.5742 -0.5448
vn 0.6446 -0.0904 -0.7592
vn 0.0614 -0.3947 -0.9168
vn -0.8376 0.1906 -0.5120
vn -0.7751 -0.2564 -0.5775
vn -0.8120 -0.4250 -0.4001
vn -0.6940 0.2170 0.6866
vn -0.7060 -0.1349 0.6953
vn -0.4716 -0.2576 0.8434
vn 0.3066 0.8112 0.4979
vn 0.4186 0.1113 0.9013
vn 0.8342 -0.2785 0.4759
vn 0.7424 0.5827 -0.3305
vn 0.9670 -0.0958 -0.2360
vn 0.9350 -0.1560 -0.3186
vn 0.4009 -0.7520 -0.5233
vn 0.0373 -0.8857 -0.4628
vn -0.0722 -0.8469 -0.5268
vn -0.1604 -0.8456 -0.5091
vn -0.1814 -0.8833 -0.4324
vn -0.5749 -0.7595 -0.3043
vn -0.6176 -0.7753 0.1322
vn -0.4943 -0.8408 0.2207
vn -0.3839 -0.6797 0.6250
vn 0.6232 -0.7096 -0.3288
vn 0.5396 -0.8348 -0.1094
vn 0.4178 -0.9007 -0.1190
vn -0.2506 -0.6876 0.6815
vn 0.3455 -0.8921 0.2911
vn 0.7247 -0.6187 0.3033
s 1
f 1//1 2//1 3//1
f 4//2 2//2 5//2
f 1//3 3//3 6//3
f 1//4 6//4 7//4
f 1//5 7//5 8//5
f 4//6 5//6 9//6
f 10//7 11//7 12//7
f 13//8 14//8 15//8
f 16//9 17//9 18//9
f 19//10 20//10 21//10
f 4//11 9//11 22//11
f 10//12 12//12 23//12
f 13//13 15//13 24//13
f 16//14 18//14 25//14
f 19//15 21//15 26//15
f 27//16 28//16 29//16
f 30//17 31//17 32//17
f 33//18 34//18 35//18
f 36//19 37//20 38//21
f 39//22 40//22 41//22
f 41//23 38//23 42//23
f 41//24 40//24 38//24
f 40//25 36//25 38//25
f 38//26 35//26 42//26
f 38//21 37//20 35//27
f 37//28 33//28 35//28
f 35//29 32//29 42//29
f 35//30 34//30 32//30
f 34//31 30//31 32//31
f 32//32 29//32 42//32
f 32//33 31//33 29//33
f 31//34 27//34 29//34
f 29//35 41//35 42//35
f 29//36 28//36 41//36
f 28//37 39//37 41//37
f 26//38 40//38 39//38
f 26//39 21//39 40//39
f 21//40 36//40 40//40
f 25//41 37//41 36//41
f 25//42 18//42 37//42
f 18//43 33//43 37//43
f 24//44 34//44 33//44
f 24//45 15//45 34//45
f 15//46 30//46 34//46
f 23//47 31//47 30//47
f 23//48 12//48 31//48
f 12//49 27//49 31//49
f 22//50 28//50 27//50
f 22//51 9//51 28//51
f 9//52 39//53 28//54
f 21//55 25//55 36//55
f 21//56 20//56 25//56
f 20//57 16//57 25//57
f 18//58 24//58 33//58
f 18//59 17//59 24//59
f 17//60 13//60 24//60
f 15//61 23//61 30//61
f 15//62 14//62 23//62
f 14//63 10//63 23//63
f 12//64 22//64 27//64
f 12//65 11//65 22//65
f 11//66 4//66 22//66
f 9//52 26//67 39//53
f 9//68 5//68 26//68
f 5//69 19//69 26//69
f 8//70 20//70 19//70
f 8//71 7//71 20//71
f 7//72 16//72 20//72
f 7//73 17//73 16//73
f 7//74 6//74 17//74
f 6//75 13//75 17//75
f 6//76 14//76 13//76
f 6//77 3//77 14//77
f 3//78 10//78 14//78
f 5//79 8//79 19//79
f 5//80 2//80 8//80
f 2//81 1//81 8//81
f 3//82 11//82 10//82
f 3//83 2//83 11//83
f 2//84 4//84 11//84
