# Blender v2.79 (sub 0) OBJ File: ''
# www.blender.org
o r2_Icosphere.002
v 0.003160 -0.047164 0.014381
v 0.051901 -0.057990 0.046578
v -0.019606 -0.061608 0.082766
v 0.097321 -0.055592 0.055119
v 0.091845 -0.033623 -0.000047
v -0.062340 -0.058322 0.023850
v -0.012705 -0.065131 -0.078726
v 0.049212 -0.042054 -0.033740
v 0.105284 -0.013001 0.021289
v -0.037220 -0.053593 0.119750
v 0.023499 -0.046267 0.106868
v -0.006655 -0.014185 0.126995
v -0.098440 -0.041001 0.024718
v -0.070662 -0.057704 0.085158
v -0.116697 -0.006540 0.060713
v -0.025923 -0.062813 -0.141462
v -0.068182 -0.049812 -0.069816
v -0.062307 -0.006833 -0.121446
v 0.075811 -0.027371 -0.061768
v 0.032879 -0.052918 -0.120434
v 0.064745 0.003742 -0.107341
v 0.072981 -0.015660 0.087612
v -0.057224 -0.012915 0.106299
v -0.098417 0.008177 -0.027096
v 0.006451 -0.000258 -0.147790
v 0.094482 0.000827 -0.046919
v 0.034645 0.036326 0.093720
v 0.078611 0.033473 0.038295
v 0.015696 0.071686 0.049689
v -0.075230 0.048890 0.064903
v -0.028561 0.049160 0.095850
v -0.039625 0.090288 0.032729
v -0.081110 0.060917 -0.059063
v -0.089111 0.069179 0.004444
v -0.047699 0.092490 -0.033440
v 0.036434 0.034958 -0.101537
v -0.016623 0.035957 -0.090512
v 0.019562 0.057628 -0.055497
v 0.085859 0.024843 -0.023224
v 0.067900 0.039765 -0.073106
v 0.041294 0.053557 -0.016071
v -0.005312 0.085089 -0.004357
vn -0.0658 -0.9716 -0.2271
vn 0.1195 -0.9183 -0.3775
vn 0.1435 -0.9769 -0.1586
vn 0.1877 -0.9699 0.1552
vn 0.2539 -0.9568 0.1414
vn 0.9069 -0.3526 -0.2305
vn 0.2346 -0.3488 0.9074
vn -0.7731 -0.6058 0.1879
vn -0.8234 -0.3866 -0.4155
vn 0.8208 -0.3589 -0.4444
vn 0.8811 0.1819 0.4365
vn -0.3734 0.1205 0.9198
vn -0.9388 -0.2496 -0.2373
vn -0.3641 0.0947 -0.9266
vn 0.8405 -0.3303 -0.4296
vn 0.5294 0.7580 0.3809
vn -0.3702 0.7473 0.5518
vn -0.6008 0.7795 -0.1771
vn -0.0797 0.8824 -0.4637
vn 0.5469 0.8355 0.0531
vn 0.5148 0.8343 -0.1976
vn 0.3201 0.9441 -0.0790
vn 0.1989 0.9061 -0.3733
vn 0.3598 0.8837 -0.2995
vn 0.1756 0.7456 -0.6429
vn -0.0893 0.6829 -0.7250
vn 0.1634 0.9865 0.0129
vn -0.4305 0.8988 0.0824
vn -0.5372 0.7547 0.3766
vn 0.2810 0.9513 0.1267
vn 0.1214 0.8412 0.5269
vn 0.1822 0.8034 0.5668
vn 0.5584 0.8295 -0.0113
vn 0.5140 0.8570 -0.0362
vn 0.5345 0.8434 -0.0553
vn 0.8632 0.4760 -0.1684
vn 0.8583 0.3120 -0.4074
vn 0.4992 0.5735 -0.6495
vn -0.1010 0.8220 -0.5604
vn -0.2987 0.7477 -0.5931
vn -0.1098 0.6566 -0.7462
vn -0.9626 0.2248 -0.1512
vn -0.9627 0.2243 -0.1511
vn -0.9627 0.2247 -0.1505
vn -0.9598 0.2298 -0.1613
vn -0.7608 0.5422 0.3566
vn -0.5153 0.3682 0.7739
vn -0.3532 0.3116 0.8821
vn 0.1253 0.4723 0.8725
vn 0.7075 0.4586 0.5377
vn 0.8437 0.3290 0.4241
vn 0.8722 0.4880 0.0343
vn 0.4534 0.5427 -0.7071
vn 0.5711 -0.1341 -0.8098
vn 0.3646 -0.2786 -0.8885
vn -0.9265 0.0813 -0.3675
vn -0.9171 -0.2488 -0.3114
vn -0.9210 -0.2824 -0.2685
vn -0.5457 0.3507 0.7610
vn -0.6105 -0.1808 0.7711
vn -0.7070 -0.1171 0.6974
vn 0.4358 0.2188 0.8730
vn 0.4363 -0.1469 0.8877
vn 0.5131 -0.3315 0.7917
vn 0.9169 0.3937 -0.0654
vn 0.9053 -0.3651 -0.2174
vn 0.8623 -0.4300 -0.2675
vn 0.4956 -0.8684 0.0154
vn 0.3097 -0.9489 0.0606
vn 0.1920 -0.9784 -0.0766
vn -0.2632 -0.9645 0.0198
vn -0.2759 -0.9586 -0.0699
vn -0.4330 -0.8999 -0.0523
vn -0.4326 -0.9002 -0.0499
vn -0.4330 -0.8997 -0.0547
vn -0.4330 -0.9000 -0.0497
vn -0.0763 -0.9971 -0.0003
vn -0.0666 -0.9812 0.1810
vn 0.3247 -0.9288 -0.1784
vn 0.3357 -0.9217 -0.1941
vn -0.0910 -0.9774 -0.1909
vn 0.1746 -0.9418 0.2873
vn 0.1848 -0.9447 0.2708
vn 0.0146 -0.9802 0.1975
s 1
f 1//1 2//1 3//1
f 4//2 2//2 5//2
f 1//3 3//3 6//3
f 1//4 6//4 7//4
f 1//5 7//5 8//5
f 4//6 5//6 9//6
f 10//7 11//7 12//7
f 13//8 14//8 15//8
f 16//9 17//9 18//9
f 19//10 20//10 21//10
f 4//11 9//11 22//11
f 10//12 12//12 23//12
f 13//13 15//13 24//13
f 16//14 18//14 25//14
f 19//15 21//15 26//15
f 27//16 28//16 29//16
f 30//17 31//17 32//17
f 33//18 34//18 35//18
f 36//19 37//19 38//19
f 39//20 40//20 41//20
f 41//21 38//21 42//21
f 41//22 40//22 38//22
f 40//23 36//23 38//23
f 38//24 35//24 42//24
f 38//25 37//25 35//25
f 37//26 33//26 35//26
f 35//27 32//27 42//27
f 35//28 34//28 32//28
f 34//29 30//29 32//29
f 32//30 29//30 42//30
f 32//31 31//31 29//31
f 31//32 27//32 29//32
f 29//33 41//33 42//33
f 29//34 28//34 41//34
f 28//35 39//35 41//35
f 26//36 40//36 39//36
f 26//37 21//37 40//37
f 21//38 36//38 40//38
f 25//39 37//39 36//39
f 25//40 18//40 37//40
f 18//41 33//41 37//41
f 24//42 34//43 33//44
f 24//42 15//45 34//43
f 15//46 30//46 34//46
f 23//47 31//47 30//47
f 23//48 12//48 31//48
f 12//49 27//49 31//49
f 22//50 28//50 27//50
f 22//51 9//51 28//51
f 9//52 39//52 28//52
f 21//53 25//53 36//53
f 21//54 20//54 25//54
f 20//55 16//55 25//55
f 18//56 24//56 33//56
f 18//57 17//57 24//57
f 17//58 13//58 24//58
f 15//59 23//59 30//59
f 15//60 14//60 23//60
f 14//61 10//61 23//61
f 12//62 22//62 27//62
f 12//63 11//63 22//63
f 11//64 4//64 22//64
f 9//65 26//65 39//65
f 9//66 5//66 26//66
f 5//67 19//67 26//67
f 8//68 20//68 19//68
f 8//69 7//69 20//69
f 7//70 16//70 20//70
f 7//71 17//71 16//71
f 7//72 6//72 17//72
f 6//73 13//74 17//75
f 6//73 14//76 13//74
f 6//77 3//77 14//77
f 3//78 10//78 14//78
f 5//79 8//79 19//79
f 5//80 2//80 8//80
f 2//81 1//81 8//81
f 3//82 11//82 10//82
f 3//83 2//83 11//83
f 2//84 4//84 11//84
